<?xml version="1.0" encoding="UTF-8" standalone="no"?>
<!-- Created with Inkscape (http://www.inkscape.org/) -->
<svg
   xmlns:svg="http://www.w3.org/2000/svg"
   xmlns="http://www.w3.org/2000/svg"
   version="1.0"
   width="744.09448"
   height="1052.3622"
   id="svg2">
  <defs
     id="defs4" />
  <g
     id="layer1">
    <path
       d="M 220.00001,249.50504 L 186.48908,214.70481 L 193.50462,262.50461 L 172.3877,219.05217 L 164.28893,266.68041 L 157.63308,218.8292 L 135.21275,261.62368 L 143.6695,214.0577 L 109.12229,247.82942 L 131.86383,205.20476 L 88.571437,226.6479 L 123.37167,193.13696 L 75.571869,200.15251 L 119.0243,179.03558 L 71.396069,170.93681 L 119.24728,164.28096 L 76.452795,141.86064 L 124.01877,150.31739 L 90.247058,115.77017 L 132.87171,138.51171 L 111.42858,95.219325 L 144.93951,130.01956 L 137.92397,82.219757 L 159.04089,125.67219 L 167.13966,78.043958 L 173.79551,125.89517 L 196.21583,83.100683 L 187.75909,130.66666 L 222.3063,96.894946 L 199.56476,139.5196 L 242.85715,118.07647 L 208.05692,151.5874 L 255.85672,144.57185 L 212.40428,165.68878 L 260.03252,173.78755 L 212.18131,180.4434 L 254.97579,202.86372 L 207.40982,194.40698 L 241.18153,228.95419 L 198.55688,206.21265 L 220.00001,249.50504 z"
       transform="matrix(0.2352571,0.9719332,-0.9719332,0.2352571,723.61052,109.51221)"
       id="path2383"
       style="fill:#ffaaaa;fill-opacity:0.88999999;stroke:none;stroke-width:2;stroke-miterlimit:4;stroke-dasharray:none;stroke-opacity:1" />
    <path
       d="M 231.42857,349.50504 C 230.6055,345.21507 236.80528,346.27903 238.55877,348.13703 C 243.31063,353.1721 239.35152,360.9471 234.16458,363.76544 C 224.88637,368.80679 213.84534,362.64802 210.03797,353.60904 C 204.45051,340.34398 213.05643,325.655 225.95656,320.98423 C 243.15041,314.75883 261.59311,325.89591 267.07958,342.66502 C 273.98373,363.76724 260.27954,386.00758 239.63659,392.28624 C 214.63521,399.89054 188.57464,383.6008 181.51717,359.08105 C 173.20018,330.18539 192.08614,300.29135 220.48455,292.46343 C 253.27164,283.42579 287.00761,304.91467 295.60038,337.19301 C 305.36404,373.86971 281.26774,411.45333 245.1086,420.80704 C 204.54352,431.3005 163.10817,404.59362 152.99636,364.55307 C 141.77035,320.10046 171.0901,274.81037 215.01254,263.94262 C 263.35204,251.98196 312.49914,283.91632 324.12118,331.721 C 336.8181,383.94692 302.2678,436.9528 250.58061,449.32785 C 194.46864,462.76229 137.60258,425.595 124.47556,370.02508 C 110.30258,310.02733 150.0877,249.29996 209.54053,235.42182 C 273.42381,220.50948 338.01343,262.91312 352.64199,326.24899 C 368.29438,394.01763 323.27166,462.47024 256.05262,477.84865 C 184.39878,494.24165 112.08252,446.59939 95.954757,375.49709 C 78.820659,299.95818 129.08287,223.77772 204.06852,206.90102 C 283.49239,189.02542 363.5375,241.90792 381.16279,320.77698 C 399.78025,404.08573 344.27717,487.99588 261.52463,506.36945 C 174.33109,525.72906 86.555534,467.60516 67.433954,380.9691 C 47.331926,289.89083 108.07687,198.24957 198.59651,178.38021 C 293.55945,157.53554 389.06667,220.90171 409.6836,315.30497 C 422.28187,372.99147 405.42803,434.47824 365.7143,478.07646"
       transform="matrix(0.2352571,0.9719332,-0.9719332,0.2352571,723.61052,109.51221)"
       id="path2385"
       style="fill:none;fill-rule:evenodd;stroke:#000000;stroke-width:1px;stroke-linecap:butt;stroke-linejoin:miter;stroke-opacity:1" />
    <path
       d="M 582.85714,483.79074 A 102.85714,94.285713 0 1 1 377.14286,483.79074 A 102.85714,94.285713 0 1 1 582.85714,483.79074 z"
       transform="matrix(0.2352571,0.9719332,-0.9719332,0.2352571,723.61052,109.51221)"
       id="path2387"
       style="fill:#008080;fill-opacity:0.88999999;stroke:none;stroke-width:2;stroke-miterlimit:4;stroke-dasharray:none;stroke-opacity:1" />
    <rect
       width="62.857143"
       height="357.14285"
       x="445.24448"
       y="-316.60394"
       transform="matrix(0.235257,0.9719332,-0.9719332,0.235257,0,0)"
       id="rect2389"
       style="fill:#800080;fill-opacity:0.88999999;stroke:none;stroke-width:2;stroke-miterlimit:4;stroke-dasharray:none;stroke-opacity:1" />
  </g>
</svg>
